<svg width="98" height="24" viewBox="0 0 98 24" fill="none" xmlns="http://www.w3.org/2000/svg">
    <circle cx="12" cy="12" r="12" fill="#5A67BA"/>
    <path d="M13.808 10.72C13.6687 10.4633 13.467 10.269 13.203 10.137C12.9463 9.99767 12.642 9.928 12.29 9.928C11.6813 9.928 11.1937 10.1297 10.827 10.533C10.4603 10.929 10.277 11.4607 10.277 12.128C10.277 12.8393 10.4677 13.3967 10.849 13.8C11.2377 14.196 11.7693 14.394 12.444 14.394C12.906 14.394 13.2947 14.2767 13.61 14.042C13.9327 13.8073 14.1673 13.47 14.314 13.03H11.927V11.644H16.019V13.393C15.8797 13.8623 15.6413 14.2987 15.304 14.702C14.974 15.1053 14.5523 15.4317 14.039 15.681C13.5257 15.9303 12.9463 16.055 12.301 16.055C11.5383 16.055 10.8563 15.89 10.255 15.56C9.661 15.2227 9.19533 14.757 8.858 14.163C8.528 13.569 8.363 12.8907 8.363 12.128C8.363 11.3653 8.528 10.687 8.858 10.093C9.19533 9.49167 9.661 9.026 10.255 8.696C10.849 8.35867 11.5273 8.19 12.29 8.19C13.214 8.19 13.9913 8.41367 14.622 8.861C15.26 9.30833 15.6817 9.928 15.887 10.72H13.808Z" fill="white"/>
    <path d="M32.363 11.128C32.363 10.3653 32.528 9.687 32.858 9.093C33.188 8.49167 33.6463 8.026 34.233 7.696C34.827 7.35867 35.498 7.19 36.246 7.19C37.1627 7.19 37.9473 7.432 38.6 7.916C39.2527 8.4 39.689 9.06 39.909 9.896H37.841C37.687 9.57333 37.467 9.32767 37.181 9.159C36.9023 8.99033 36.5833 8.906 36.224 8.906C35.6447 8.906 35.1753 9.10767 34.816 9.511C34.4567 9.91433 34.277 10.4533 34.277 11.128C34.277 11.8027 34.4567 12.3417 34.816 12.745C35.1753 13.1483 35.6447 13.35 36.224 13.35C36.5833 13.35 36.9023 13.2657 37.181 13.097C37.467 12.9283 37.687 12.6827 37.841 12.36H39.909C39.689 13.196 39.2527 13.856 38.6 14.34C37.9473 14.8167 37.1627 15.055 36.246 15.055C35.498 15.055 34.827 14.89 34.233 14.56C33.6463 14.2227 33.188 13.757 32.858 13.163C32.528 12.569 32.363 11.8907 32.363 11.128ZM45.4989 15L43.8929 12.085H43.4419V15H41.5609V7.278H44.7179C45.3266 7.278 45.8436 7.38433 46.2689 7.597C46.7016 7.80967 47.0242 8.103 47.2369 8.477C47.4496 8.84367 47.5559 9.25433 47.5559 9.709C47.5559 10.2223 47.4092 10.6807 47.1159 11.084C46.8299 11.4873 46.4046 11.7733 45.8399 11.942L47.6219 15H45.4989ZM43.4419 10.754H44.6079C44.9526 10.754 45.2092 10.6697 45.3779 10.501C45.5539 10.3323 45.6419 10.094 45.6419 9.786C45.6419 9.49267 45.5539 9.26167 45.3779 9.093C45.2092 8.92433 44.9526 8.84 44.6079 8.84H43.4419V10.754ZM51.0847 7.278V11.898C51.0847 12.36 51.1984 12.7157 51.4257 12.965C51.653 13.2143 51.9867 13.339 52.4267 13.339C52.8667 13.339 53.204 13.2143 53.4387 12.965C53.6734 12.7157 53.7907 12.36 53.7907 11.898V7.278H55.6717V11.887C55.6717 12.5763 55.525 13.1593 55.2317 13.636C54.9384 14.1127 54.5424 14.472 54.0437 14.714C53.5524 14.956 53.0024 15.077 52.3937 15.077C51.785 15.077 51.2387 14.9597 50.7547 14.725C50.278 14.483 49.9004 14.1237 49.6217 13.647C49.343 13.163 49.2037 12.5763 49.2037 11.887V7.278H51.0847ZM60.3855 7.278C61.1995 7.278 61.9109 7.43933 62.5195 7.762C63.1282 8.08467 63.5975 8.53933 63.9275 9.126C64.2649 9.70533 64.4335 10.3763 64.4335 11.139C64.4335 11.8943 64.2649 12.5653 63.9275 13.152C63.5975 13.7387 63.1245 14.1933 62.5085 14.516C61.8999 14.8387 61.1922 15 60.3855 15H57.4925V7.278H60.3855ZM60.2645 13.372C60.9759 13.372 61.5295 13.1777 61.9255 12.789C62.3215 12.4003 62.5195 11.8503 62.5195 11.139C62.5195 10.4277 62.3215 9.874 61.9255 9.478C61.5295 9.082 60.9759 8.884 60.2645 8.884H59.3735V13.372H60.2645ZM73.8428 7.278V8.785H70.6968V10.413H73.0508V11.876H70.6968V15H68.8158V7.278H73.8428ZM78.1254 15.088C77.5241 15.088 76.9814 14.9597 76.4974 14.703C76.0207 14.4463 75.6431 14.0797 75.3644 13.603C75.0931 13.1263 74.9574 12.569 74.9574 11.931C74.9574 11.3003 75.0967 10.7467 75.3754 10.27C75.6541 9.786 76.0354 9.41567 76.5194 9.159C77.0034 8.90233 77.5461 8.774 78.1474 8.774C78.7487 8.774 79.2914 8.90233 79.7754 9.159C80.2594 9.41567 80.6407 9.786 80.9194 10.27C81.1981 10.7467 81.3374 11.3003 81.3374 11.931C81.3374 12.5617 81.1944 13.119 80.9084 13.603C80.6297 14.0797 80.2447 14.4463 79.7534 14.703C79.2694 14.9597 78.7267 15.088 78.1254 15.088ZM78.1254 13.46C78.4847 13.46 78.7891 13.328 79.0384 13.064C79.2951 12.8 79.4234 12.4223 79.4234 11.931C79.4234 11.4397 79.2987 11.062 79.0494 10.798C78.8074 10.534 78.5067 10.402 78.1474 10.402C77.7807 10.402 77.4764 10.534 77.2344 10.798C76.9924 11.0547 76.8714 11.4323 76.8714 11.931C76.8714 12.4223 76.9887 12.8 77.2234 13.064C77.4654 13.328 77.7661 13.46 78.1254 13.46ZM85.6293 15.088C85.028 15.088 84.4853 14.9597 84.0013 14.703C83.5247 14.4463 83.147 14.0797 82.8683 13.603C82.597 13.1263 82.4613 12.569 82.4613 11.931C82.4613 11.3003 82.6007 10.7467 82.8793 10.27C83.158 9.786 83.5393 9.41567 84.0233 9.159C84.5073 8.90233 85.05 8.774 85.6513 8.774C86.2527 8.774 86.7953 8.90233 87.2793 9.159C87.7633 9.41567 88.1447 9.786 88.4233 10.27C88.702 10.7467 88.8413 11.3003 88.8413 11.931C88.8413 12.5617 88.6983 13.119 88.4123 13.603C88.1337 14.0797 87.7487 14.4463 87.2573 14.703C86.7733 14.9597 86.2307 15.088 85.6293 15.088ZM85.6293 13.46C85.9887 13.46 86.293 13.328 86.5423 13.064C86.799 12.8 86.9273 12.4223 86.9273 11.931C86.9273 11.4397 86.8027 11.062 86.5533 10.798C86.3113 10.534 86.0107 10.402 85.6513 10.402C85.2847 10.402 84.9803 10.534 84.7383 10.798C84.4963 11.0547 84.3753 11.4323 84.3753 11.931C84.3753 12.4223 84.4927 12.8 84.7273 13.064C84.9693 13.328 85.27 13.46 85.6293 13.46ZM89.9652 11.92C89.9652 11.2893 90.0826 10.7357 90.3172 10.259C90.5592 9.78233 90.8856 9.41567 91.2962 9.159C91.7069 8.90233 92.1652 8.774 92.6712 8.774C93.0746 8.774 93.4412 8.85833 93.7712 9.027C94.1086 9.19567 94.3726 9.423 94.5632 9.709V6.86H96.4442V15H94.5632V14.12C94.3872 14.4133 94.1342 14.648 93.8042 14.824C93.4816 15 93.1039 15.088 92.6712 15.088C92.1652 15.088 91.7069 14.9597 91.2962 14.703C90.8856 14.439 90.5592 14.0687 90.3172 13.592C90.0826 13.108 89.9652 12.5507 89.9652 11.92ZM94.5632 11.931C94.5632 11.4617 94.4312 11.0913 94.1672 10.82C93.9106 10.5487 93.5952 10.413 93.2212 10.413C92.8472 10.413 92.5282 10.5487 92.2642 10.82C92.0076 11.084 91.8792 11.4507 91.8792 11.92C91.8792 12.3893 92.0076 12.7633 92.2642 13.042C92.5282 13.3133 92.8472 13.449 93.2212 13.449C93.5952 13.449 93.9106 13.3133 94.1672 13.042C94.4312 12.7707 94.5632 12.4003 94.5632 11.931Z" fill="#5A67BA"/>
</svg>
